<?xml version="1.0" encoding="UTF-8"?>
<svg width="160px" height="31px" viewBox="0 0 160 31" version="1.1" xmlns="http://www.w3.org/2000/svg" xmlns:xlink="http://www.w3.org/1999/xlink">
    <!-- Generator: Sketch Beta 56 (81428) - https://sketch.com -->
    <title>Logo</title>
    <desc>Created with Sketch Beta.</desc>
    <g id="Page-1" stroke="none" stroke-width="1" fill="none" fill-rule="evenodd">
        <g id="Home-Hero-|-Desk-Copy-6" transform="translate(-120.000000, -32.000000)">
            <g id="Group-74" transform="translate(120.000000, 32.000000)">
                <g id="Logo">
                    <g>
                        <path d="M47.2119446,8.87218535 L49.9913517,8.87218535 C50.1680828,8.87218535 50.3113517,9.01545423 50.3113517,9.19218535 L50.3113517,25.2617106 C50.3113517,25.4384417 50.1680828,25.5817106 49.9913517,25.5817106 L47.2119446,25.5817106 C47.0352135,25.5817106 46.8919446,25.4384417 46.8919446,25.2617106 L46.8919446,19.012938 C46.8919446,18.8362069 46.7486757,18.692938 46.5719446,18.692938 L39.7559875,18.692938 C39.5792564,18.692938 39.4359875,18.8362069 39.4359875,19.012938 L39.4359875,25.2617106 C39.4359875,25.4384417 39.2927187,25.5817106 39.1159875,25.5817106 L36.3247722,25.5817106 C36.1480411,25.5817106 36.0047722,25.4384417 36.0047722,25.2617106 L36.0047722,9.19218535 C36.0047722,9.01545423 36.1480411,8.87218535 36.3247722,8.87218535 L39.1159875,8.87218535 C39.2927187,8.87218535 39.4359875,9.01545423 39.4359875,9.19218535 L39.4359875,15.3229995 C39.4359875,15.4997306 39.5792564,15.6429995 39.7559875,15.6429995 L46.5719446,15.6429995 C46.7486757,15.6429995 46.8919446,15.4997306 46.8919446,15.3229995 L46.8919446,9.19218535 C46.8919446,9.01545423 47.0352135,8.87218535 47.2119446,8.87218535 Z M85.9001273,25.5817566 L83.4749664,25.5817566 C83.2982355,25.5817561 83.1549668,25.4384875 83.1549659,25.2617566 L83.1549551,19.1615122 C83.1549551,18.3838935 82.9667223,17.7686858 82.587487,17.3198538 C82.2057611,16.8680742 81.7125339,16.6405073 81.115551,16.6405073 C80.4551065,16.6405073 79.9066403,16.8999247 79.477832,17.4147786 C79.0516113,17.9265256 78.8399827,18.6318954 78.8399827,19.5271835 L78.8399827,25.2617566 C78.8399827,25.4384878 78.6967138,25.5817566 78.5199827,25.5817566 L76.1066302,25.5817566 C75.9298991,25.5817566 75.7866302,25.4384878 75.7866302,25.2617566 L75.7866302,19.1615124 C75.7866302,18.3837058 75.5962922,17.7683098 75.2129031,17.3194361 C74.8273525,16.8680316 74.3363052,16.6405073 73.7472261,16.6405073 C73.0869154,16.6405073 72.5366327,16.8998012 72.1039136,17.4144074 C71.6735648,17.9261947 71.4598496,18.6317319 71.4598496,19.5271835 L71.4598496,25.2617566 C71.4598496,25.4384878 71.3165807,25.5817566 71.1398496,25.5817566 L68.7264971,25.5817566 C68.549766,25.5817566 68.4064971,25.4384878 68.4064971,25.2617566 L68.4064971,14.2644441 C68.4064971,14.087713 68.549766,13.9444441 68.7264971,13.9444441 L71.1398496,13.9444441 C71.3165807,13.9444441 71.4598496,14.087713 71.4598496,14.2644441 L71.4598496,15.2924757 C71.4598496,15.3492821 71.5059003,15.3953329 71.5627067,15.3953329 C71.5981533,15.3953329 71.6311022,15.3770813 71.6499033,15.3470317 L71.6499033,15.3470317 C71.7250573,15.2269133 71.8436962,15.0758979 72.0054224,14.8951044 C72.1615234,14.7205993 72.5069768,14.4757534 73.0374231,14.1663266 C73.5610218,13.8608943 74.1197818,13.7084812 74.7154996,13.7084812 C75.1683654,13.7084812 75.5936265,13.7792959 75.9917679,13.9207889 C76.391258,14.0627613 76.7081952,14.22678 76.94257,14.411811 C77.1819371,14.6007834 77.3880453,14.7932079 77.560953,14.9889647 C77.7313264,15.1818522 77.8454231,15.3481445 77.9034113,15.4857342 L77.9986842,15.6999231 L78.0745718,15.8704912 L78.1782115,15.7152134 C78.2082615,15.6701911 78.2603612,15.5988691 78.3339308,15.5021672 C78.4041301,15.4098954 78.5625808,15.247751 78.8064776,15.0195752 C79.0500885,14.7916669 79.3110606,14.5869663 79.5894455,14.4054294 C79.86422,14.2262469 80.2278785,14.0647902 80.6801215,13.9219268 C81.1305592,13.7796337 81.5983419,13.7084812 82.083836,13.7084812 C83.3617298,13.7084812 84.3663348,14.134753 85.1057528,14.988212 C85.8472404,15.8440599 86.2201273,17.1120882 86.2201273,18.7957951 L86.2201273,25.2617566 C86.2201273,25.4384878 86.0768585,25.5817566 85.9001273,25.5817566 Z M59.6025428,25.821409 C56.2535391,25.821409 53.5386788,23.1093926 53.5386788,19.7640049 C53.5386788,16.4186171 56.2535391,13.7066007 59.6025428,13.7066007 C62.9515465,13.7066007 65.6664068,16.4186171 65.6664068,19.7640049 C65.6664068,23.1093926 62.9515465,25.821409 59.6025428,25.821409 Z M59.6025428,22.9469927 C61.3622181,22.9469927 62.7887605,21.5219446 62.7887605,19.7640049 C62.7887605,18.0060651 61.3622181,16.5810171 59.6025428,16.5810171 C57.8428675,16.5810171 56.4163251,18.0060651 56.4163251,19.7640049 C56.4163251,21.5219446 57.8428675,22.9469927 59.6025428,22.9469927 Z M100.720613,19.5271374 L100.637481,20.4539998 C100.622682,20.6189912 100.484413,20.7454139 100.318759,20.7454132 L92.1936419,20.7453805 C92.1051096,20.7450783 92.0333398,20.8168476 92.0333394,20.9053798 C92.0333394,20.9169026 92.0345818,20.9283918 92.037045,20.9396482 C92.0528181,21.0117281 92.0646207,21.0617249 92.0724527,21.0896388 C92.2333768,21.6631814 92.571364,22.1548676 93.0841253,22.5624889 C93.6621691,23.0220069 94.3893538,23.2512955 95.2618017,23.2512955 C95.8903727,23.2512955 96.4737597,23.1282866 97.0109312,22.882175 C97.2936199,22.7526577 97.6548803,22.4983543 98.0970646,22.1186332 C98.1122432,22.1055987 98.1294063,22.0907121 98.148554,22.0739732 C98.2816184,21.9576916 98.4837559,21.9712597 98.6000619,22.1043028 C98.6040775,22.1088963 98.6079609,22.1136037 98.6117073,22.1184192 L99.7797215,23.6197442 C99.8835161,23.7531676 99.8656353,23.9443097 99.7388917,24.0561629 C99.6670137,24.1195964 99.6098883,24.1692752 99.5675156,24.2051995 C99.4247182,24.3262653 99.2996063,24.4260511 99.192292,24.5044924 C98.8739814,24.7371615 98.5362083,24.9446539 98.1789193,25.1269927 C97.8246775,25.3077763 97.3615946,25.4684268 96.7901509,25.6082256 C96.2196109,25.7478033 95.6315022,25.8176044 95.025649,25.8176044 C93.3128073,25.8176044 91.8548192,25.2245886 90.6460553,24.0364456 C89.4375741,22.8485805 88.8347286,21.4260468 88.8347286,19.7630428 C88.8347286,18.0997529 89.4299207,16.6770366 90.6229105,15.4891734 C91.816008,14.3012029 93.2423488,13.7084812 94.9075668,13.7084812 C96.5732003,13.7084812 97.9559969,14.2621785 99.0620756,15.3709694 C100.168228,16.4798343 100.720613,17.8632062 100.720613,19.5271374 Z M94.9075553,16.2865514 C94.1914487,16.2865514 93.5797112,16.4950195 93.0766108,16.9117876 C92.6280711,17.2833578 92.2988818,17.7563561 92.0896368,18.3290496 C92.0812571,18.3519845 92.0673973,18.3934677 92.0480573,18.4534992 C92.020805,18.5376381 92.0670624,18.6278659 92.1512439,18.6549861 C92.167111,18.6600979 92.1836791,18.6627009 92.2003493,18.6627009 L97.4931251,18.6627009 C97.5815073,18.6627309 97.6531552,18.591083 97.6531552,18.5027009 C97.6531552,18.4914292 97.6519643,18.4801891 97.6496025,18.4691677 C97.642912,18.4379478 97.6380675,18.4162307 97.6350688,18.4040162 C97.4899592,17.8129401 97.1871836,17.3189494 96.7280798,16.9247543 C96.2326417,16.4993618 95.6242639,16.2865514 94.9075553,16.2865514 Z M119.15355,8.87218478 L121.932958,8.87218478 C122.109689,8.87218478 122.252958,9.01545366 122.252958,9.19218478 L122.252958,25.26171 C122.252958,25.4384411 122.109689,25.58171 121.932958,25.58171 L119.15355,25.58171 C118.976819,25.58171 118.83355,25.4384411 118.83355,25.26171 L118.83355,19.0129374 C118.83355,18.8362063 118.690282,18.6929374 118.51355,18.6929374 L111.697593,18.6929374 C111.520862,18.6929374 111.377593,18.8362063 111.377593,19.0129374 L111.377593,25.26171 C111.377593,25.4384411 111.234324,25.58171 111.057593,25.58171 L108.266378,25.58171 C108.089647,25.58171 107.946378,25.4384411 107.946378,25.26171 L107.946378,9.19218478 C107.946378,9.01545366 108.089647,8.87218478 108.266378,8.87218478 L111.057593,8.87218478 C111.234324,8.87218478 111.377593,9.01545366 111.377593,9.19218478 L111.377593,15.3229989 C111.377593,15.49973 111.520862,15.6429989 111.697593,15.6429989 L118.51355,15.6429989 C118.690282,15.6429989 118.83355,15.49973 118.83355,15.3229989 L118.83355,9.19218478 C118.83355,9.01545366 118.976819,8.87218478 119.15355,8.87218478 Z M136.649781,19.5853292 L136.566649,20.5121916 C136.55185,20.677183 136.41358,20.8036057 136.247927,20.803605 L128.121968,20.8035723 C128.03366,20.8036749 127.962071,20.875263 127.962071,20.9635716 C127.962071,20.9749446 127.963284,20.986285 127.96569,20.9974005 C127.978733,21.057654 127.988395,21.0993953 127.994676,21.1226244 C128.1527,21.7069794 128.493036,22.2071004 129.013293,22.6206807 C129.591337,23.0801987 130.318522,23.3094873 131.190969,23.3094873 C131.81954,23.3094873 132.402927,23.1864784 132.940099,22.9403668 C133.206738,22.8182027 133.543281,22.5850194 133.951701,22.2402869 C133.985377,22.2118626 134.02723,22.1757589 134.077262,22.1319758 C134.210246,22.015534 134.412443,22.0290013 134.528847,22.1620186 C134.532902,22.1666525 134.536823,22.1714026 134.540604,22.1762627 L135.709194,23.6783281 C135.812931,23.8116851 135.795127,24.0027141 135.668527,24.1145967 C135.636316,24.1430634 135.608977,24.1670123 135.586513,24.1864434 C135.405804,24.3427496 135.250721,24.4682007 135.12146,24.5626842 C134.803149,24.7953533 134.465376,25.0028457 134.108087,25.1851845 C133.753845,25.3659681 133.290762,25.5266186 132.719319,25.6664174 C132.148779,25.8059951 131.56067,25.8757962 130.954817,25.8757962 C129.241975,25.8757962 127.783987,25.2827804 126.575223,24.0946374 C125.366742,22.9067723 124.763896,21.4842386 124.763896,19.8212346 C124.763896,18.1579447 125.359088,16.7352284 126.552078,15.5473652 C127.745176,14.3593947 129.171517,13.766673 130.836735,13.766673 C132.502368,13.766673 133.885165,14.3203703 134.991243,15.4291612 C136.097396,16.5380261 136.649781,17.921398 136.649781,19.5853292 Z M130.951427,16.3578091 C130.23532,16.3578091 129.623583,16.5662772 129.120483,16.9830453 C128.679228,17.3485801 128.353479,17.8122747 128.1438,18.3724794 C128.133299,18.4005353 128.116172,18.4511965 128.09242,18.524463 C128.064997,18.6085552 128.111094,18.6988761 128.195233,18.7261529 C128.211186,18.7313246 128.227852,18.7339586 128.244622,18.7339586 L133.535882,18.7339586 C133.624315,18.7340815 133.696005,18.662392 133.696005,18.5739586 C133.696005,18.5624021 133.694754,18.5508796 133.692274,18.5395925 C133.677965,18.4744779 133.667424,18.4294031 133.660651,18.4043682 C133.509202,17.8445902 133.212575,17.3743396 132.771952,16.996012 C132.276513,16.5706195 131.668136,16.3578091 130.951427,16.3578091 Z M146.172116,14.0800115 L146.172116,16.3829141 C146.172199,16.5596913 146.028893,16.7029976 145.852116,16.7029976 C145.837181,16.7029976 145.822264,16.7019523 145.807475,16.6998694 C145.787721,16.6970872 145.76965,16.6946629 145.753262,16.6925966 C145.553608,16.6674224 145.36596,16.6533816 145.190281,16.6505033 C144.302918,16.6504895 143.596277,16.9328498 143.076031,17.4975686 C142.556912,18.0610636 142.299001,18.8644143 142.299001,19.9028368 L142.299001,25.1537804 C142.299001,25.3305115 142.155732,25.4737804 141.979001,25.4737804 L139.565648,25.4737804 C139.388917,25.4737804 139.245648,25.3305115 139.245648,25.1537804 L139.245648,14.1564678 C139.245648,13.9797367 139.388917,13.8364678 139.565648,13.8364678 L141.979001,13.8364678 C142.155732,13.8364678 142.299001,13.9797367 142.299001,14.1564678 L142.299001,15.0354635 C142.298901,15.1238842 142.37058,15.1955633 142.459001,15.1955633 C142.504825,15.1955633 142.548453,15.1759274 142.578839,15.1416266 C142.610782,15.1055692 142.634301,15.0794495 142.649395,15.0632674 C142.715424,14.9924811 142.791254,14.9133389 142.876842,14.8258997 C143.039528,14.6596945 143.411966,14.4303004 143.988555,14.144239 C144.30278,13.9883429 144.891123,13.8623321 145.748584,13.7691325 C145.769429,13.7668668 145.793054,13.7643816 145.819459,13.761677 C145.995292,13.743616 146.152439,13.8715608 146.17045,14.0473997 C146.17156,14.0582349 146.172116,14.0691196 146.172116,14.0800115 Z M153.718271,25.8814812 C150.369268,25.8814812 147.654407,23.1694649 147.654407,19.8240771 C147.654407,16.4786893 150.369268,13.766673 153.718271,13.766673 C157.067275,13.766673 159.782135,16.4786893 159.782135,19.8240771 C159.782135,23.1694649 157.067275,25.8814812 153.718271,25.8814812 Z M153.671407,22.9568555 C155.431082,22.9568555 156.857625,21.5318075 156.857625,19.7738677 C156.857625,18.015928 155.431082,16.5908799 153.671407,16.5908799 C151.911732,16.5908799 150.485189,18.015928 150.485189,19.7738677 C150.485189,21.5318075 151.911732,22.9568555 153.671407,22.9568555 Z" id="Shape" fill="#5C6888"></path>
                        <path d="M14.4828051,5.54955309 C14.2328696,5.29961754 13.827644,5.29961754 13.5777084,5.54955309 L2.58806936,16.5391922 C2.46310159,16.6641599 2.26048879,16.6641599 2.13552102,16.5391922 L0.148336015,14.5520072 C0.0233682417,14.4270394 0.0233682417,14.2244266 0.148336015,14.0994588 L12.8010065,1.44678832 C13.4695378,0.778256978 14.5576425,0.782458155 15.2313563,1.45617191 L27.9838635,14.2086792 C28.1088313,14.333647 28.1088313,14.5362597 27.9838635,14.6612275 L26.0154457,16.6296453 C25.8904779,16.7546131 25.6878651,16.7546131 25.5628974,16.6296453 L14.4828051,5.54955309 Z M1.82379575,25.5677054 C1.8226137,25.5665593 1.82144052,25.5654041 1.82027631,25.5642399 C1.69530422,25.4392678 1.69530422,25.236648 1.82028411,25.1116837 C1.87646762,25.0555002 1.92372759,25.0082402 1.96206403,24.9699038 C2.34597345,24.5859944 2.89161713,24.0403507 3.59899507,23.3329727 C3.64743682,23.284531 3.7109004,23.2210674 3.78938582,23.142582 C3.91268727,23.0192805 4.11200198,23.0173726 4.23760152,23.1383323 C4.32112476,23.2187172 4.39011404,23.2839682 4.44456935,23.3340854 C9.82980813,28.290318 18.1075005,28.3170376 23.4484036,23.3917374 C23.4980231,23.345979 23.5603149,23.2870377 23.635279,23.2149133 C23.7608994,23.0940517 23.9601485,23.0959749 24.083415,23.2192365 C24.1435285,23.27935 24.1938033,23.3296248 24.2342393,23.3700608 C24.627417,23.7632385 25.1889665,24.324788 25.9188884,25.0547099 C25.9587738,25.0945953 26.0095441,25.1453656 26.0711995,25.207021 C26.0723929,25.2082144 26.0735768,25.2094172 26.0747511,25.2106293 C26.1976992,25.3375317 26.1944936,25.5400756 26.0676391,25.6630731 C26.0000698,25.7285369 25.9435446,25.7826063 25.8980634,25.8252813 C19.2074604,32.1030701 8.72732427,32.0606808 1.99032925,25.7271971 C1.94560128,25.6851481 1.89009011,25.6319842 1.82379575,25.5677054 Z" id="Combined-Shape" fill="#0094FF" fill-rule="nonzero"></path>
                    </g>
                </g>
            </g>
        </g>
    </g>
</svg>